<?xml version="1.0" standalone="no"?>
<svg xmlns="http://www.w3.org/2000/svg" viewBox="0 0 95.68 120.88" width="95.68" height="120.88"><rect fill="#800707" width="95.68" height="120.88" x="0" y="0"></rect><g fill="white" color="white" transform="translate(22.841 12) scale(0.5)"><svg width="100.0" height="100.0" x="0.0" y="0.0" viewBox="0 0 100 100"><path d="M65.454,3.129c-0.026-0.735-0.647-1.442-1.385-1.417L50.721,2.185c-0.738,0.026-1.307,0.858-1.281,1.597l0.321,9.046  l16.017-0.569L65.454,3.129z"></path><rect x="51.172" y="17.86" transform="matrix(0.9994 -0.0353 0.0353 0.9994 -1.82 2.1228)" width="16.026" height="69.45"></rect><path d="M52.745,97.213c0.026,0.73,0.636,1.096,1.375,1.074l13.348-0.475c0.738-0.026,1.317-0.517,1.292-1.252l-0.149-4.216  l-16.016,0.563L52.745,97.213z"></path><path d="M3,96.743c0,0.735,0.597,1.336,1.335,1.336h13.355c0.738,0,1.336-0.601,1.336-1.336V39.314H3V96.743z"></path><path d="M19.027,13.938c0-0.738-0.598-1.335-1.336-1.335H4.336C3.598,12.603,3,13.201,3,13.938v9.349h16.027V13.938z"></path><path d="M45.738,24.753c0-0.738-0.597-1.335-1.335-1.335H25.705c-0.738,0-1.335,0.597-1.335,1.335v9.219h21.369V24.753z"></path><path d="M24.37,44.657v52.086c0,0.735,0.597,1.336,1.335,1.336h18.698c0.738,0,1.335-0.601,1.335-1.336V44.657H24.37z"></path><path d="M81.102,96.926c0.104,0.735,0.777,1.241,1.513,1.138l13.22-1.879c0.73-0.104,1.252-0.673,1.153-1.408l-8.833-62.25  l-15.87,2.254L81.102,96.926z"></path><path d="M86.09,17.979c-0.104-0.73-0.777-1.237-1.508-1.132l-13.225,1.875c-0.73,0.102-1.252,0.673-1.148,1.403l1.325,9.362  l15.87-2.251L86.09,17.979z"></path></svg></g><path fill="white" fill-rule="nonzero" d="M0 31.88L0 31.08Q1.92 31.08 2.86 29.04Q3.80 27.00 3.80 23.28L3.80 23.28L3.80 0L7.40 0L7.40 23.28Q7.40 26.40 6.74 28.26Q6.08 30.12 4.48 31.00Q2.88 31.88 0 31.88L0 31.88ZM17.96 26.40Q16.48 26.40 15.74 26.02Q15 25.64 14.68 24.64Q14.36 23.64 14.36 21.60L14.36 21.60L14.36 0L17.96 0L17.96 21.60Q17.96 23.64 18.52 24.62Q19.08 25.60 20.76 25.60L20.76 25.60L21.56 25.60L21.56 26.40L17.96 26.40ZM33.80 26.40L33.80 15.48L27 5.20Q25.96 3.72 25.24 2.88Q24.52 2.04 23.54 1.46Q22.56 0.88 21.20 0.80L21.20 0.80L21.20 0L24.80 0Q26.80 0 28.16 1.18Q29.52 2.36 30.80 4.40L30.80 4.40L36.60 13.40L44.96 0L46.76 0L37.40 15.20L37.40 26.40L33.80 26.40ZM61.48 26.80Q57.64 26.80 55.40 25.50Q53.16 24.20 52.22 21.64Q51.28 19.08 51.28 15.00L51.28 15.00L51.28 4.80Q51.28 2.76 50.72 1.78Q50.16 0.80 48.48 0.80L48.48 0.80L47.68 0.80L47.68 0L51.28 0Q52.76 0 53.50 0.38Q54.24 0.76 54.56 1.76Q54.88 2.76 54.88 4.80L54.88 4.80L54.88 16.20Q54.88 20.64 56.52 22.92Q58.16 25.20 61.96 25.20L61.96 25.20Q65 25.20 66.78 24.12Q68.56 23.04 69.32 20.84Q70.08 18.64 70.08 15.00L70.08 15.00L70.08 0L71.68 0L71.68 15.00Q71.68 19.16 70.80 21.70Q69.92 24.24 67.70 25.52Q65.48 26.80 61.48 26.80L61.48 26.80Z" transform="translate(12 77) scale(1)"></path></svg>